<?xml version="1.0" encoding="UTF-8" standalone="no"?>
<!-- Created with Inkscape (http://www.inkscape.org/) -->

<svg
   xmlns:dc="http://purl.org/dc/elements/1.1/"
   xmlns:cc="http://creativecommons.org/ns#"
   xmlns:rdf="http://www.w3.org/1999/02/22-rdf-syntax-ns#"
   xmlns:svg="http://www.w3.org/2000/svg"
   xmlns="http://www.w3.org/2000/svg"
   xmlns:sodipodi="http://sodipodi.sourceforge.net/DTD/sodipodi-0.dtd"
   xmlns:inkscape="http://www.inkscape.org/namespaces/inkscape"
   version="1.1"
   id="svg2"
   xml:space="preserve"
   width="158.83382"
   height="25.87121"
   viewBox="0 0 158.83382 25.87121"
   sodipodi:docname="logo.svg"
   inkscape:version="0.92.4 5da689c313, 2019-01-14"><metadata
     id="metadata8"><rdf:RDF><cc:Work
         rdf:about=""><dc:format>image/svg+xml</dc:format><dc:type
           rdf:resource="http://purl.org/dc/dcmitype/StillImage" /><dc:title></dc:title></cc:Work></rdf:RDF></metadata><defs
     id="defs6"><clipPath
       clipPathUnits="userSpaceOnUse"
       id="clipPath38"><path
         d="M 0,13.663 H 83.871 V 0 H 0 Z"
         id="path36"
         inkscape:connector-curvature="0" /></clipPath></defs><sodipodi:namedview
     pagecolor="#ffffff"
     bordercolor="#666666"
     borderopacity="1"
     objecttolerance="10"
     gridtolerance="10"
     guidetolerance="10"
     inkscape:pageopacity="0"
     inkscape:pageshadow="2"
     inkscape:window-width="1920"
     inkscape:window-height="2082"
     id="namedview4"
     showgrid="false"
     inkscape:zoom="9.2731142"
     inkscape:cx="51.465483"
     inkscape:cy="9.1061335"
     inkscape:window-x="1920"
     inkscape:window-y="41"
     inkscape:window-maximized="0"
     inkscape:current-layer="g10"
     inkscape:pagecheckerboard="true" /><g
     id="g10"
     inkscape:groupmode="layer"
     inkscape:label="img-logo"
     transform="matrix(1.3333333,0,0,-1.3333333,47.006613,25.873743)"><g
       id="g12"
       transform="matrix(1.4203505,0,0,1.4203505,-19.009702,6.3920567)"><path
         d="M 0,0 -2.259,2.259 0,4.518 2.259,2.259 Z"
         style="fill:#a6282e;fill-opacity:1;fill-rule:nonzero;stroke:none"
         id="path14"
         inkscape:connector-curvature="0" /></g><g
       id="g16"
       transform="matrix(1.4203505,0,0,1.4203505,-35.249848,19.405308)"
       style="fill:#f78904;fill-opacity:1"><path
         d="m 0,0 v -3.415 -6.832 -3.414 h 3.415 10.247 v 3.414 H 3.415 v 1.14 l 2.278,2.276 -2.278,2.277 v 1.139 H 13.662 V 0 Z"
         style="fill:#f78904;fill-opacity:1;fill-rule:nonzero;stroke:none"
         id="path18"
         inkscape:connector-curvature="0" /></g><g
       id="g20"
       transform="matrix(1.4203505,0,0,1.4203505,-35.254961,7.0989651)"
       style="fill:#1d1918;fill-opacity:1"><path
         d="M 0,0 1.846,1.847 0,3.693 Z"
         style="fill:#1d1918;fill-opacity:1;fill-rule:nonzero;stroke:none"
         id="path22"
         inkscape:connector-curvature="0" /></g><g
       id="g24"
       transform="matrix(1.4203505,0,0,1.4203505,-7.8937558,4.8925927)"
       style="fill:#ffffff"><path
         d="M 0,0 V 2.454 H 4.278 4.58 V 2.756 4.264 4.566 H 4.278 0 V 6.774 H 4.583 4.885 V 7.076 8.613 8.915 H 4.583 -2.144 -2.445 V 8.613 -1.839 -2.141 h 0.301 6.828 0.302 V -1.839 -0.303 0 H 4.684 Z"
         style="fill:#ffffff;fill-opacity:1;fill-rule:nonzero;stroke:none"
         id="path26"
         inkscape:connector-curvature="0" /></g><g
       id="g28"
       transform="matrix(1.4203505,0,0,1.4203505,12.471087,17.554449)"><path
         d="M 0,0 H -0.208 L -0.282,-0.195 -2.47,-5.959 -4.749,-0.191 -4.825,0 H -5.03 -7.667 -7.97 v -0.302 -10.451 -0.302 h 0.303 1.724 0.301 v 0.302 7.019 l 2.114,-5.391 0.075,-0.191 h 0.206 1.478 0.206 l 0.075,0.191 2.1,5.283 v -6.911 -0.302 h 0.302 1.753 0.302 v 0.302 10.451 L 2.969,0 H 2.667 Z"
         style="fill:#9e2a2c;fill-opacity:1;fill-rule:nonzero;stroke:none"
         id="path30"
         inkscape:connector-curvature="0" /></g><g
       id="g32"
       transform="matrix(1.4203505,0,0,1.4203505,-35.254961,-7.9866587e-4)"
       style="fill:#ffffff"><g
         id="g34"
         clip-path="url(#clipPath38)"
         style="fill:#ffffff"><g
           id="g40"
           transform="translate(45.2441,6.7362)"
           style="fill:#ffffff"><path
             d="m 0,0 c -0.281,0.274 -0.65,0.521 -1.099,0.731 -0.438,0.207 -0.984,0.383 -1.622,0.523 -0.309,0.067 -0.6,0.132 -0.875,0.195 -0.25,0.057 -0.468,0.132 -0.649,0.222 -0.162,0.081 -0.291,0.181 -0.382,0.299 -0.079,0.101 -0.118,0.243 -0.118,0.424 v 0.173 c 0,0.096 0.027,0.191 0.081,0.293 0.057,0.107 0.149,0.212 0.275,0.311 0.13,0.102 0.301,0.188 0.507,0.254 0.21,0.068 0.467,0.101 0.763,0.101 0.39,0 0.764,-0.038 1.109,-0.115 0.33,-0.075 0.698,-0.239 1.091,-0.49 L -0.657,2.756 -0.498,3.02 0.372,4.455 0.524,4.707 0.275,4.866 C -0.282,5.221 -0.851,5.467 -1.414,5.595 -1.965,5.72 -2.548,5.783 -3.147,5.783 -3.888,5.783 -4.523,5.681 -5.035,5.48 -5.549,5.277 -5.972,5.013 -6.29,4.694 -6.609,4.376 -6.842,4.019 -6.983,3.635 -7.12,3.26 -7.19,2.891 -7.19,2.539 V 2.35 c 0,-0.663 0.127,-1.206 0.378,-1.614 0.247,-0.402 0.571,-0.726 0.964,-0.964 0.379,-0.228 0.807,-0.4 1.274,-0.513 0.441,-0.107 0.88,-0.209 1.317,-0.306 0.56,-0.126 0.986,-0.285 1.269,-0.472 0.229,-0.151 0.336,-0.373 0.336,-0.697 v -0.16 c 0,-0.266 -0.107,-0.474 -0.335,-0.654 -0.243,-0.193 -0.669,-0.29 -1.262,-0.29 -0.586,0 -1.12,0.095 -1.583,0.283 -0.471,0.189 -0.857,0.411 -1.149,0.659 l -0.27,0.23 -0.184,-0.302 -0.899,-1.479 -0.137,-0.225 0.205,-0.166 c 0.216,-0.175 0.473,-0.344 0.763,-0.502 0.288,-0.157 0.604,-0.293 0.941,-0.406 0.331,-0.11 0.689,-0.199 1.065,-0.264 0.379,-0.066 0.769,-0.099 1.16,-0.099 0.523,0 1.032,0.054 1.515,0.159 0.499,0.11 0.948,0.295 1.334,0.55 0.397,0.264 0.717,0.617 0.948,1.053 0.23,0.433 0.347,0.972 0.347,1.599 v 0.188 c 0,0.392 -0.063,0.761 -0.185,1.097 C 0.497,-0.602 0.287,-0.283 0,0"
             style="fill:#ffffff;fill-opacity:1;fill-rule:nonzero;stroke:none"
             id="path42"
             inkscape:connector-curvature="0" /></g><g
           id="g44"
           transform="translate(46.6621,12.3603)"
           style="fill:#ffffff"><path
             d="M 0,0 H -0.302 V -0.302 -1.868 -2.169 H 0 2.771 v -8.584 -0.303 h 0.302 1.856 0.302 v 0.303 8.584 H 7.988 8.29 V -1.868 -0.302 0 H 7.988 Z"
             style="fill:#ffffff;fill-opacity:1;fill-rule:nonzero;stroke:none"
             id="path46"
             inkscape:connector-curvature="0" /></g><g
           id="g48"
           transform="translate(59.8965,3.4452)"
           style="fill:#ffffff"><path
             d="m 0,0 c -0.317,0 -0.62,0.042 -0.899,0.125 -0.263,0.078 -0.487,0.213 -0.685,0.41 -0.198,0.198 -0.359,0.476 -0.478,0.825 -0.125,0.363 -0.187,0.832 -0.187,1.396 v 1.262 c 0,0.564 0.062,1.033 0.186,1.395 0.12,0.35 0.281,0.628 0.479,0.827 0.198,0.197 0.422,0.331 0.685,0.409 0.28,0.083 0.583,0.125 0.899,0.125 0.327,0 0.634,-0.042 0.915,-0.125 C 1.178,6.571 1.401,6.437 1.599,6.24 1.796,6.043 1.954,5.766 2.069,5.417 2.188,5.052 2.25,4.581 2.25,4.018 V 2.756 C 2.25,2.193 2.188,1.723 2.069,1.358 1.954,1.009 1.797,0.731 1.599,0.535 1.4,0.338 1.178,0.203 0.915,0.125 0.635,0.042 0.327,0 0,0 M 3.304,7.947 C 2.867,8.336 2.354,8.625 1.779,8.807 1.217,8.984 0.617,9.074 0,9.074 -0.616,9.074 -1.215,8.984 -1.779,8.807 -2.354,8.625 -2.868,8.335 -3.303,7.947 -3.74,7.555 -4.091,7.048 -4.344,6.438 -4.595,5.835 -4.722,5.098 -4.722,4.25 V 2.525 c 0,-0.859 0.126,-1.602 0.378,-2.211 0.252,-0.614 0.601,-1.122 1.034,-1.508 0.43,-0.384 0.941,-0.669 1.519,-0.846 0.562,-0.173 1.165,-0.26 1.791,-0.26 0.626,0 1.229,0.087 1.792,0.26 0.577,0.177 1.088,0.462 1.519,0.846 0.432,0.385 0.781,0.893 1.035,1.508 0.251,0.611 0.378,1.354 0.378,2.211 V 4.25 c 0,0.847 -0.127,1.583 -0.378,2.188 -0.254,0.61 -0.605,1.118 -1.042,1.509"
             style="fill:#ffffff;fill-opacity:1;fill-rule:nonzero;stroke:none"
             id="path50"
             inkscape:connector-curvature="0" /></g><g
           id="g52"
           transform="translate(72.6533,12.3603)"
           style="fill:#ffffff"><path
             d="m 0,0 h -0.302 v -0.302 -6.379 c -0.034,0.067 -0.067,0.131 -0.1,0.189 L -3.97,-0.154 -4.057,0 h -0.176 -2.13 -0.303 v -0.302 -10.451 -0.303 h 0.303 1.739 0.302 v 0.303 6.355 c 0.03,-0.054 0.059,-0.107 0.09,-0.159 l 3.578,-6.345 0.087,-0.154 h 0.176 2.13 0.302 v 0.303 10.451 L 2.041,0 H 1.739 Z"
             style="fill:#ffffff;fill-opacity:1;fill-rule:nonzero;stroke:none"
             id="path54"
             inkscape:connector-curvature="0" /></g><g
           id="g56"
           transform="translate(83.5684,3.4452)"
           style="fill:#ffffff"><path
             d="m 0,0 h -4.685 v 2.455 h 4.279 0.302 V 2.756 4.264 4.566 H -0.406 -4.685 V 6.774 H -0.102 0.2 V 7.076 8.613 8.915 H -0.102 -6.827 -7.13 V 8.613 -1.839 -2.141 H -6.827 0 0.302 V -1.839 -0.302 0 Z"
             style="fill:#ffffff;fill-opacity:1;fill-rule:nonzero;stroke:none"
             id="path58"
             inkscape:connector-curvature="0" /></g></g></g></g></svg>